<svg width="24" height="24" viewBox="0 0 24 24" fill="none" xmlns="http://www.w3.org/2000/svg">
<path d="M6.99998 13.0059L14.59 13.0059L11.29 16.2959C11.1017 16.4842 10.9959 16.7396 10.9959 17.0059C10.9959 17.2722 11.1017 17.5276 11.29 17.7159C11.4783 17.9042 11.7337 18.01 12 18.01C12.2663 18.01 12.5217 17.9042 12.71 17.7159L17.71 12.7159C17.801 12.6208 17.8724 12.5087 17.92 12.3859C18.02 12.1425 18.02 11.8694 17.92 11.6259C17.8724 11.5032 17.801 11.391 17.71 11.2959L12.71 6.29592C12.617 6.20219 12.5064 6.12779 12.3846 6.07703C12.2627 6.02626 12.132 6.00012 12 6.00012C11.868 6.00012 11.7373 6.02626 11.6154 6.07703C11.4935 6.12779 11.3829 6.20219 11.29 6.29592C11.1963 6.38888 11.1219 6.49948 11.0711 6.62134C11.0203 6.7432 10.9942 6.87391 10.9942 7.00592C10.9942 7.13793 11.0203 7.26864 11.0711 7.39049C11.1219 7.51235 11.1963 7.62295 11.29 7.71592L14.59 11.0059L6.99998 11.0059C6.73477 11.0059 6.48041 11.1113 6.29287 11.2988C6.10534 11.4863 5.99998 11.7407 5.99998 12.0059C5.99998 12.2711 6.10534 12.5255 6.29287 12.713C6.48041 12.9006 6.73477 13.0059 6.99998 13.0059Z" fill="#021526"/>
</svg>
