<svg width="89" height="89" viewBox="0 0 89 89" fill="none" xmlns="http://www.w3.org/2000/svg">
<path d="M65.7212 15.1648C67.4178 14.3443 68.5929 12.613 68.5929 10.6035C68.5929 9.26102 68.0596 7.97352 67.1103 7.02423C66.161 6.07494 64.8735 5.54164 63.531 5.54164C62.1885 5.54164 60.901 6.07494 59.9517 7.02423C59.0024 7.97352 58.4691 9.26102 58.4691 10.6035C58.4691 12.6408 59.672 14.386 61.4033 15.1926C59.4008 26.0395 56.3275 34.112 44.8896 35.8364C44.8896 35.8364 47.9699 51.2376 62.3768 51.2376C76.7836 51.2376 78.2438 35.9894 78.2438 35.9894C66.5556 36.5873 65.5682 21.8954 65.7212 15.1648Z" fill="#F19534"/>
<path d="M24.1553 15.1648C22.4587 14.3443 21.2836 12.613 21.2836 10.6035C21.2836 9.26102 21.8169 7.97352 22.7662 7.02423C23.7155 6.07494 25.003 5.54164 26.3455 5.54164C27.688 5.54164 28.9755 6.07494 29.9248 7.02423C30.8741 7.97352 31.4074 9.26102 31.4074 10.6035C31.4074 12.6408 30.2045 14.386 28.4732 15.1926C30.4757 26.0395 33.5489 34.112 44.9868 35.8364C44.9868 35.8364 41.9066 51.2376 27.4997 51.2376C13.0929 51.2376 11.6396 35.9963 11.6396 35.9963C23.3209 36.5873 24.3082 21.8954 24.1553 15.1648Z" fill="#F19534"/>
<path d="M62.1816 51.2376C62.2442 51.2376 62.3068 51.2445 62.3694 51.2445C66.3396 51.2445 69.3225 50.0834 71.5614 48.4077L62.1816 51.2376Z" fill="#FFCA28"/>
<path d="M82.9086 11.723C80.5932 11.4101 78.3821 13.6142 77.9789 16.6319C77.7285 18.5162 78.2361 20.2753 79.2165 21.4087L77.5478 28.327C77.5478 28.327 74.996 44.6738 62.1049 47.9001C51.8003 50.4797 48.0665 31.6159 47.1626 25.7891C49.1234 24.8157 50.4792 22.7993 50.4792 20.4561C50.4792 17.1673 47.8162 14.5042 44.5274 14.5042C41.2385 14.5042 38.5755 17.1673 38.5755 20.4561C38.5755 22.8132 39.9522 24.8505 41.9478 25.81C41.2316 31.5602 38.0749 49.7983 26.9499 47.8931C15.658 45.9532 10.7282 26.9364 9.58792 21.7633C10.9438 20.6508 11.7017 18.69 11.4235 16.5832C11.0203 13.5586 8.62839 11.3892 6.08354 11.7299C3.5387 12.0706 1.80737 14.7963 2.21065 17.8139C2.50268 20.0111 3.85159 21.7563 5.5412 22.4169L14.3856 77.3674C14.3856 77.3674 22.1035 83.4653 44.5274 83.4653C66.9512 83.4653 74.6692 77.3674 74.6692 77.3674L83.5344 22.2709C84.9668 21.5199 86.0932 19.8303 86.3713 17.7583C86.7815 14.7337 85.231 12.0359 82.9086 11.723Z" fill="#FFCA28"/>
<path d="M44.8055 69.4687C48.5458 69.4687 51.5779 65.8545 51.5779 61.3961C51.5779 56.9377 48.5458 53.3235 44.8055 53.3235C41.0653 53.3235 38.0332 56.9377 38.0332 61.3961C38.0332 65.8545 41.0653 69.4687 44.8055 69.4687Z" fill="#26A69A"/>
<path d="M44.8063 55.3191C45.0706 55.6111 45.307 56.1465 44.8063 57.1895C44.3057 58.2324 41.6079 59.6439 41.1142 59.929C40.6206 60.221 40.2938 60.0889 40.1408 59.9707C39.4107 59.3866 39.6888 58.0655 40.1617 57.259C41.1768 55.5137 43.3253 53.7129 44.8063 55.3191Z" fill="#69F0AE"/>
<path d="M44.3051 64.4068C43.5403 64.7753 41.0302 65.8948 41.8576 67.2228C42.3443 68.0085 43.3525 68.3423 44.2773 68.384C45.2021 68.4257 46.1129 68.1337 46.9334 67.7095C50.8271 65.6931 51.14 60.3948 50.3821 59.9916C49.6034 59.5744 49.075 60.6521 48.6717 61.111C47.4454 62.4843 45.962 63.604 44.3051 64.4068Z" fill="#00796B"/>
<path d="M82.1096 54.7906C83.1942 48.7901 79.1614 47.2882 79.1614 47.2882C79.1614 47.2882 76.561 46.8154 75.3372 53.5669C74.1135 60.3114 76.7139 60.7842 76.7139 60.7842C76.7139 60.7842 81.0179 60.7912 82.1096 54.7906Z" fill="#26A69A"/>
<path d="M80.3155 49.3394C81.2611 50.6048 80.1417 52.4752 78.3269 53.7198C77.7915 54.0884 77.0823 53.9493 76.978 53.6434C76.686 52.7673 76.8111 51.773 77.2005 50.9316C78.3547 48.4077 79.8357 48.6997 80.3155 49.3394Z" fill="#69F0AE"/>
<path d="M6.78581 54.9714C5.69417 48.9778 9.73393 47.469 9.73393 47.469C9.73393 47.469 12.3344 46.9962 13.5581 53.7477C14.7819 60.4922 12.1814 60.965 12.1814 60.965C12.1814 60.965 7.87049 60.972 6.78581 54.9714Z" fill="#26A69A"/>
<path d="M10.9719 49.5063C11.9036 50.2016 11.5212 51.1124 10.819 51.7452C10.0193 52.4752 9.40747 53.2748 8.72607 54.1023C8.62177 54.2274 8.50357 54.3665 8.33669 54.4013C8.01685 54.4708 7.75958 54.144 7.65529 53.8311C7.3563 52.955 7.41193 51.9259 7.85693 51.1194C9.1224 48.8179 10.6104 49.2351 10.9719 49.5063Z" fill="#69F0AE"/>
<path d="M69.5239 60.6034C69.0441 63.336 66.8539 65.2342 64.6219 64.8448C62.39 64.4555 62.0841 62.1262 62.5638 59.3936C63.0436 56.661 64.1213 54.5681 66.3463 54.9575C68.5783 55.3469 70.0037 57.8778 69.5239 60.6034ZM21.158 60.6034C21.6377 63.336 23.828 65.2342 26.0599 64.8448C28.2919 64.4555 28.5978 62.1262 28.118 59.3936C27.6383 56.661 26.5605 54.5681 24.3355 54.9575C22.1105 55.3469 20.6851 57.8778 21.158 60.6034Z" fill="#F44336"/>
<path d="M24.3915 58.7817C23.8839 59.3519 22.6463 60.4991 22.2082 59.6231C21.6103 58.4271 22.4377 56.6193 23.3833 56.0213C24.3289 55.4234 25.1007 55.8962 25.2329 56.4316C25.3928 57.113 24.8435 58.2672 24.3915 58.7817ZM63.9548 60.527C63.2664 60.4227 63.19 58.0516 65.0395 56.1882C65.9225 55.2982 67.188 56.3551 66.8682 57.7805C66.5622 59.1363 65.2133 60.7216 63.9548 60.527Z" fill="#FFA8A4"/>
<path d="M75.8938 68.2866C71.7288 70.3726 62.1752 75.9281 44.5352 75.9281C26.8951 75.9281 17.3415 70.3726 13.1766 68.2866C13.1766 68.2866 11.6816 69.0862 11.6816 69.9206V76.3244C11.6816 77.1797 12.1336 77.9654 12.8706 78.4034C16.1247 80.3225 26.0398 84.8559 44.5421 84.8559C63.0444 84.8559 72.9595 80.3225 76.2136 78.4034C76.5754 78.1901 76.8753 77.8862 77.0838 77.5216C77.2923 77.1571 77.4022 76.7444 77.4026 76.3244V69.9206C77.3887 69.0862 75.8938 68.2866 75.8938 68.2866Z" fill="#FFCA28"/>
<path d="M27.5345 77.0684C29.4813 77.4509 30.0723 77.6177 29.9402 78.7024C29.6691 80.837 25.2399 80.3295 22.6186 79.6411C17.2021 78.2157 16.1035 76.7138 16.1035 75.3719C16.1035 74.1412 17.0491 73.9952 18.5093 74.5097C20.2545 75.1285 22.9523 76.1715 27.5345 77.0684Z" fill="#FFF59D"/>
<path d="M75.893 69.6912C75.893 69.6912 64.3716 76.2132 44.5344 76.2132C24.6971 76.2132 13.1758 69.6912 13.1758 69.6912" stroke="#F19534" stroke-width="4" stroke-miterlimit="10" stroke-linecap="round"/>
<path d="M18.7524 34.4666C22.4515 31.8245 24.4401 27.0894 24.6139 19.5522C24.6278 18.8708 24.8225 18.6691 25.191 18.6274C25.782 18.5648 25.8794 19.1002 25.8724 19.4827C25.7055 27.6178 24.6695 32.7006 20.5672 35.5652C20.3655 35.7043 18.9263 36.5804 18.3144 35.9755C17.5843 35.2663 18.516 34.6335 18.7524 34.4666ZM22.1386 10.8052C22.0204 9.54664 22.3124 7.27993 25.6152 6.25086C26.5816 5.95188 27.1796 6.42469 27.2909 6.79321C27.569 7.71102 26.7624 8.07258 26.3939 8.19078C23.856 9.01125 23.7309 10.2767 23.2094 11.0833C22.6879 11.8898 22.1803 11.1876 22.1386 10.8052ZM54.3872 32.7979C57.7316 29.8289 59.9497 26.5123 61.4098 18.9612C61.542 18.2937 61.7366 18.1129 62.0982 18.1268C62.6892 18.1407 62.717 18.69 62.6545 19.0655C61.4168 27.1172 60.2417 29.4117 56.1185 33.9799C55.6527 34.4945 54.5193 34.9603 53.8796 34.4249C53.3025 33.9452 53.97 33.1734 54.3872 32.7979ZM59.31 10.8677C59.1918 9.60922 59.4838 7.3425 62.7866 6.31344C63.7531 6.01446 64.351 6.48727 64.4623 6.85578C64.7404 7.7736 63.9338 8.13516 63.5653 8.25336C61.0274 9.07383 60.9023 10.3393 60.3808 11.1459C59.8662 11.9524 59.3517 11.2502 59.31 10.8677Z" fill="#FFCA28"/>
<path d="M21.9645 49.7983C13.885 46.134 11.507 36.5734 10.2415 32.4224C10.0746 31.8731 10.1581 31.3516 10.7074 31.1848C11.2567 31.0179 11.5835 31.3725 11.7573 31.9218C12.6751 34.9325 16.2421 44.9867 23.6054 47.8444C24.1408 48.053 24.9752 48.5606 24.5232 49.4298C24.2243 49.993 23.2647 50.3893 21.9645 49.7983ZM8.81613 17.1255C8.42676 16.319 8.26684 15.5541 6.14613 14.6711C5.61074 14.4486 5.25613 13.9549 5.40215 13.3987C5.54817 12.8424 6.10442 12.4252 6.91098 12.5643C9.53231 13.0162 10.1025 15.6793 10.2137 16.6041C10.318 17.4941 9.21246 17.9321 8.81613 17.1255ZM67.3545 49.7983C75.434 46.134 77.812 36.5734 79.0775 32.4224C79.2443 31.8731 79.1609 31.3516 78.6116 31.1848C78.0623 31.0179 77.7355 31.3725 77.5617 31.9218C76.6439 34.9325 73.0769 44.9867 65.7136 47.8444C65.1782 48.053 64.3438 48.5606 64.7957 49.4298C65.0947 49.993 66.0543 50.3893 67.3545 49.7983ZM80.5029 17.1255C80.8922 16.319 81.0522 15.5541 83.1729 14.6711C83.7082 14.4486 84.0629 13.9549 83.9168 13.3987C83.7708 12.8424 83.2146 12.4252 82.408 12.5643C79.7867 13.0162 79.2165 15.6793 79.1053 16.6041C79.001 17.4941 80.1135 17.9321 80.5029 17.1255ZM41.2872 20.5465C41.7114 19.6773 42.4554 18.4884 44.882 17.9877C45.8137 17.793 46.0849 17.3898 46.0014 16.7779C45.8346 15.5055 44.2493 15.5959 43.394 15.7975C40.5432 16.465 39.9105 18.9959 39.7923 19.9972C39.6741 20.9498 40.87 21.4156 41.2872 20.5465Z" fill="#FFF59D"/>
</svg>
