<svg width="12" height="12" viewBox="0 0 12 12" fill="none" xmlns="http://www.w3.org/2000/svg">
<path d="M10.5002 2.49995L1.5002 2.49995C1.40908 2.50023 1.31976 2.52536 1.24186 2.57264C1.16396 2.61991 1.10043 2.68753 1.0581 2.76822C1.01578 2.84892 0.996259 2.93963 1.00165 3.03059C1.00704 3.12155 1.03714 3.20932 1.0887 3.28445L5.5887 9.78445C5.7752 10.0539 6.2242 10.0539 6.4112 9.78445L10.9112 3.28445C10.9633 3.20948 10.9938 3.12166 10.9995 3.03055C11.0052 2.93944 10.9858 2.84851 10.9434 2.76764C10.9011 2.68678 10.8374 2.61907 10.7592 2.57188C10.6811 2.52468 10.5915 2.4998 10.5002 2.49995Z" fill="#021526"/>
</svg>
