<svg width="12" height="12" viewBox="0 0 12 12" fill="none" xmlns="http://www.w3.org/2000/svg">
<path d="M10.5002 2.50019L1.5002 2.50019C1.40908 2.50048 1.31976 2.52561 1.24186 2.57288C1.16396 2.62015 1.10043 2.68777 1.0581 2.76847C1.01578 2.84916 0.996259 2.93987 1.00165 3.03083C1.00704 3.12179 1.03714 3.20956 1.0887 3.28469L5.5887 9.78469C5.7752 10.0542 6.2242 10.0542 6.4112 9.78469L10.9112 3.28469C10.9633 3.20972 10.9938 3.12191 10.9995 3.03079C11.0052 2.93968 10.9858 2.84875 10.9434 2.76789C10.9011 2.68702 10.8374 2.61931 10.7592 2.57212C10.6811 2.52492 10.5915 2.50005 10.5002 2.50019Z" fill="#021526"/>
</svg>
